<?xml version="1.0" standalone="no"?>
<!DOCTYPE svg PUBLIC "-//W3C//DTD SVG 20010904//EN"
 "http://www.w3.org/TR/2001/REC-SVG-20010904/DTD/svg10.dtd">
<svg version="1.0" xmlns="http://www.w3.org/2000/svg"
 width="16.000000pt" height="16.000000pt" viewBox="0 0 16.000000 16.000000"
 preserveAspectRatio="xMidYMid meet">
<metadata>
Created by potrace 1.11, written by Peter Selinger 2001-2013
</metadata>
<g transform="translate(0.000000,16.000000) scale(0.003265,-0.003265)"
fill="#000000" stroke="none">
<path d="M2289 4856 c-2 -2 -40 -6 -84 -10 -44 -3 -96 -9 -115 -12 -74 -12
-303 -65 -321 -74 -10 -6 -19 -8 -19 -5 0 2 -37 -9 -82 -26 -46 -17 -87 -32
-93 -33 -39 -10 -323 -147 -350 -168 -5 -5 -46 -31 -90 -60 -70 -45 -176 -122
-211 -153 -6 -5 -39 -34 -73 -64 -118 -103 -226 -219 -319 -344 -29 -40 -59
-79 -65 -87 -25 -31 -107 -168 -155 -260 -109 -205 -205 -493 -238 -710 -3
-19 -7 -42 -9 -50 -27 -102 -26 -571 0 -695 2 -11 7 -37 10 -57 2 -21 9 -57
14 -80 6 -24 12 -54 15 -68 19 -100 113 -377 138 -407 6 -7 8 -13 5 -13 -9 0
79 -172 142 -278 30 -50 58 -92 63 -92 4 0 8 -5 8 -12 0 -9 92 -139 124 -175
6 -6 34 -37 61 -68 84 -96 199 -208 274 -265 17 -14 42 -34 54 -45 43 -38 252
-173 348 -224 208 -110 440 -192 669 -236 14 -3 35 -7 46 -9 181 -37 582 -43
754 -12 14 3 42 7 63 10 21 4 79 15 130 27 99 22 104 23 127 31 8 3 60 20 115
38 172 56 350 141 529 253 25 15 31 19 89 62 26 19 51 35 56 35 5 0 11 3 13 8
2 4 32 31 68 60 150 123 361 352 448 485 15 23 33 48 40 56 8 8 18 24 23 35 5
12 20 39 33 61 14 22 35 60 48 85 13 25 29 54 35 65 43 76 138 320 168 435 13
47 56 262 60 300 3 25 10 79 15 120 9 78 6 438 -5 500 -3 19 -13 78 -21 130
-9 52 -22 122 -31 155 -8 33 -16 67 -18 75 -6 28 -77 235 -92 270 -44 100
-137 285 -144 288 -5 2 -9 8 -9 14 0 19 -118 191 -220 321 -42 53 -175 193
-247 258 -67 61 -192 159 -202 159 -6 0 -11 4 -11 8 0 4 -15 16 -32 27 -18 10
-35 21 -38 25 -17 21 -342 197 -380 206 -3 0 -18 6 -35 13 -61 26 -189 72
-224 81 -20 5 -61 16 -91 24 -30 9 -73 18 -95 22 -22 3 -42 7 -46 10 -3 2 -26
6 -50 9 -49 6 -89 12 -134 21 -33 6 -430 15 -436 10z"/>
</g>
</svg>
